<svg width="34" height="31" viewBox="0 0 34 31" fill="none" xmlns="http://www.w3.org/2000/svg">
<path fill-rule="evenodd" clip-rule="evenodd" d="M2.85242 12.5264H8.5866V29.251H2.85242C2.32461 29.251 1.89673 28.675 1.89673 27.9645V13.8129C1.89673 13.1024 2.32461 12.5264 2.85242 12.5264Z" stroke="#FA002C" stroke-width="2.5" stroke-linecap="round" stroke-linejoin="round"/>
<path d="M8.58639 13.7807L14.105 3.08846C14.9203 1.50871 16.8618 0.889062 18.4415 1.7044C18.7367 1.85673 19.0064 2.05381 19.2413 2.28866C20.1822 3.22961 20.7109 4.5058 20.7109 5.8365V10.8539H29.4927C30.2123 10.8539 30.8972 11.1629 31.3734 11.7023C31.8496 12.2418 32.0713 12.9598 31.982 13.6738L30.1005 27.0535C29.9436 28.3089 28.8764 29.251 27.6112 29.251H8.58639" stroke="#FA002C" stroke-width="2.5" stroke-linecap="round" stroke-linejoin="round"/>
</svg>
