<svg width="37" height="36" viewBox="0 0 37 36" fill="none" xmlns="http://www.w3.org/2000/svg">
<path d="M4.50122 30.6V5.4C4.50122 4.90294 4.90417 4.5 5.40122 4.5H30.6012C31.0983 4.5 31.5012 4.90294 31.5012 5.4V30.6C31.5012 31.0971 31.0983 31.5 30.6012 31.5H5.40122C4.90417 31.5 4.50122 31.0971 4.50122 30.6Z" stroke="#FA002C" stroke-width="2.5" stroke-linecap="round" stroke-linejoin="round"/>
<path d="M22.5012 12.75C21.4737 11.7225 19.6643 11.0078 18.0012 10.9631M13.5012 22.5C14.4679 23.789 16.2654 24.5241 18.0012 24.5865M18.0012 10.9631C16.0226 10.9098 14.2512 11.805 14.2512 14.25C14.2512 18.75 22.5012 16.5 22.5012 21C22.5012 23.5665 20.3055 24.6693 18.0012 24.5865M18.0012 10.9631V8.25M18.0012 24.5865V27.75" stroke="#FA002C" stroke-width="2.5" stroke-linecap="round" stroke-linejoin="round"/>
</svg>
