<svg width="30" height="30" viewBox="0 0 30 30" fill="none" xmlns="http://www.w3.org/2000/svg">
<path d="M25.0559 29.6406H5.08716C3.98727 29.6395 2.93274 29.2021 2.155 28.4243C1.37726 27.6466 0.939838 26.5921 0.938721 25.4922V15.2969C0.939838 14.197 1.37726 13.1425 2.155 12.3647C2.93274 11.587 3.98727 11.1496 5.08716 11.1484H12.1086C12.6494 11.1484 13.168 10.9336 13.5504 10.5512C13.9328 10.1688 14.1476 9.65017 14.1476 9.10938C14.1487 8.00948 14.5862 6.95496 15.3639 6.17722C16.1417 5.39948 17.1962 4.96205 18.2961 4.96094H25.0559C26.1558 4.96205 27.2103 5.39948 27.9881 6.17722C28.7658 6.95496 29.2032 8.00948 29.2043 9.10938V25.4922C29.203 26.592 28.7656 27.6464 27.9879 28.4241C27.2102 29.2018 26.1557 29.6393 25.0559 29.6406ZM5.08716 13.2578C4.54637 13.2578 4.02772 13.4726 3.64532 13.855C3.26292 14.2374 3.0481 14.7561 3.0481 15.2969V25.4922C3.0481 26.033 3.26292 26.5516 3.64532 26.934C4.02772 27.3164 4.54637 27.5312 5.08716 27.5312H25.0559C25.5967 27.5312 26.1153 27.3164 26.4977 26.934C26.8801 26.5516 27.095 26.033 27.095 25.4922V9.10938C27.095 8.56858 26.8801 8.04994 26.4977 7.66754C26.1153 7.28514 25.5967 7.07031 25.0559 7.07031H18.2961C17.7553 7.07031 17.2366 7.28514 16.8542 7.66754C16.4718 8.04994 16.257 8.56858 16.257 9.10938C16.2557 10.2092 15.8182 11.2636 15.0405 12.0413C14.2628 12.819 13.2084 13.2565 12.1086 13.2578H5.08716Z" fill="#FA002C"/>
<path d="M5.50903 12.5911C5.22931 12.5911 4.96105 12.4799 4.76326 12.2822C4.56546 12.0844 4.45435 11.8161 4.45435 11.5364V1.76294C4.45435 1.48322 4.56546 1.21496 4.76326 1.01716C4.96105 0.81937 5.22931 0.708252 5.50903 0.708252H24.634C24.9138 0.708252 25.182 0.81937 25.3798 1.01716C25.5776 1.21496 25.6887 1.48322 25.6887 1.76294V5.34888C25.6887 5.6286 25.5776 5.89686 25.3798 6.09465C25.182 6.29245 24.9138 6.40356 24.634 6.40356C24.3543 6.40356 24.086 6.29245 23.8883 6.09465C23.6905 5.89686 23.5793 5.6286 23.5793 5.34888V2.81763H6.56372V11.5364C6.56372 11.8161 6.4526 12.0844 6.25481 12.2822C6.05702 12.4799 5.78875 12.5911 5.50903 12.5911Z" fill="#FA002C"/>
</svg>
