<svg width="37" height="36" viewBox="0 0 37 36" fill="none" xmlns="http://www.w3.org/2000/svg">
<path d="M31.0012 31H5.00122C3.89665 31 3.00122 30.1046 3.00122 29V11.625C3.00122 10.5204 3.89665 9.625 5.00122 9.625H9.89011C10.9947 9.625 11.8901 8.72957 11.8901 7.625V6C11.8901 4.89543 12.7855 4 13.8901 4H22.1123C23.2169 4 24.1123 4.89543 24.1123 6V7.625C24.1123 8.72957 25.0078 9.625 26.1123 9.625H31.0012C32.1058 9.625 33.0012 10.5204 33.0012 11.625V29C33.0012 30.1046 32.1058 31 31.0012 31Z" stroke="#FA002C" stroke-width="2.5"/>
<circle cx="18.0012" cy="20" r="6" stroke="#FA002C" stroke-width="2.5"/>
</svg>
