<svg width="37" height="36" viewBox="0 0 37 36" fill="none" xmlns="http://www.w3.org/2000/svg">
<path d="M13.3342 21.3333L22.6676 11.3333" stroke="#FA002C" stroke-width="2.5" stroke-linecap="round" stroke-linejoin="round"/>
<path d="M13.5012 14C14.3296 14 15.0012 13.3284 15.0012 12.5C15.0012 11.6716 14.3296 11 13.5012 11C12.6728 11 12.0012 11.6716 12.0012 12.5C12.0012 13.3284 12.6728 14 13.5012 14Z" stroke="#FA002C" stroke-width="2.5" stroke-linecap="round" stroke-linejoin="round"/>
<path d="M22.5012 22C23.3296 22 24.0012 21.3284 24.0012 20.5C24.0012 19.6716 23.3296 19 22.5012 19C21.6728 19 21.0012 19.6716 21.0012 20.5C21.0012 21.3284 21.6728 22 22.5012 22Z" stroke="#FA002C" stroke-width="2.5" stroke-linecap="round" stroke-linejoin="round"/>
<path d="M6.00122 33.3334V6.07416C6.00122 5.17045 6.36244 4.30377 7.00543 3.66475C7.64841 3.02574 8.52048 2.66675 9.42979 2.66675H26.5726C27.482 2.66675 28.354 3.02574 28.997 3.66475C29.64 4.30377 30.0012 5.17045 30.0012 6.07416V33.3334L24.8584 29.926L21.4298 33.3334L18.0012 29.926L14.5726 33.3334L11.1441 29.926L6.00122 33.3334Z" stroke="#FA002C" stroke-width="2.5" stroke-linecap="round" stroke-linejoin="round"/>
</svg>
